<svg xmlns="http://www.w3.org/2000/svg" viewBox="0 0 500 500">
<g fill="black">
<path d="M232,16 231,17 222,17 221,18 214,18 213,19 209,19 208,20 204,20 203,21 199,21 198,22 195,22 194,23 191,23 190,24 187,24 186,25 184,25 183,26 180,26 179,27 177,27 176,28 174,28 173,29 171,29 170,30 168,30 167,31 166,31 165,32 163,32 162,33 161,33 160,34 158,34 157,35 156,35 155,36 154,36 153,37 152,37 151,38 149,38 148,39 147,39 146,40 145,40 144,41 143,41 142,42 141,42 140,43 139,43 137,45 136,45 135,46 134,46 133,47 132,47 130,49 129,49 128,50 127,50 125,52 124,52 122,54 121,54 119,56 118,56 116,58 115,58 112,61 111,61 108,64 107,64 104,67 103,67 98,72 97,72 87,82 86,82 81,87 81,88 72,97 72,98 67,103 67,104 63,108 63,109 60,112 60,113 58,115 58,116 56,118 56,119 54,121 54,122 52,124 52,125 51,126 51,127 49,129 49,130 48,131 48,132 46,134 46,135 45,136 45,137 44,138 44,139 43,140 43,141 42,142 42,143 41,144 41,145 40,146 40,147 39,148 39,149 38,150 38,151 37,152 37,153 36,154 36,155 35,156 35,157 34,158 34,160 33,161 33,162 32,163 32,165 31,166 31,167 30,168 30,170 29,171 29,173 28,174 28,176 27,177 27,179 26,180 26,183 25,184 25,186 24,187 24,190 23,191 23,194 22,195 22,198 21,199 21,202 20,203 20,208 19,209 19,214 18,215 18,222 17,223 17,232 16,233 16,266 17,267 17,276 18,277 18,284 19,285 19,290 20,291 20,295 21,296 21,300 22,301 22,304 23,305 23,308 24,309 24,312 25,313 25,315 26,316 26,319 27,320 27,322 28,323 28,325 29,326 29,328 30,329 30,330 31,331 31,333 32,334 32,336 33,337 33,338 34,339 34,341 35,342 35,343 36,344 36,345 37,346 37,347 38,348 38,350 39,351 39,352 40,353 40,354 41,355 41,356 42,357 42,358 44,360 44,361 45,362 45,363 46,364 46,365 47,366 47,367 49,369 49,370 50,371 50,372 52,374 52,375 54,377 54,378 56,380 56,381 58,383 58,384 61,387 61,388 64,391 64,392 67,395 67,396 72,401 72,402 81,411 81,412 86,417 87,417 97,427 98,427 103,432 104,432 108,436 109,436 111,438 112,438 115,441 116,441 118,443 119,443 121,445 122,445 124,447 125,447 126,448 127,448 129,450 130,450 131,451 132,451 134,453 135,453 136,454 137,454 138,455 139,455 140,456 141,456 142,457 143,457 144,458 145,458 146,459 147,459 148,460 149,460 150,461 151,461 152,462 153,462 154,463 155,463 156,464 157,464 158,465 160,465 161,466 162,466 163,467 165,467 166,468 167,468 168,469 170,469 171,470 173,470 174,471 176,471 177,472 179,472 180,473 182,473 183,474 186,474 187,475 190,475 191,476 193,476 194,477 198,477 199,478 203,478 204,479 208,479 209,480 214,480 215,481 222,481 223,482 233,482 234,483 265,483 266,482 276,482 277,481 284,481 285,480 290,480 291,479 295,479 296,478 300,478 301,477 305,477 306,476 308,476 309,475 312,475 313,474 316,474 317,473 319,473 320,472 322,472 323,471 325,471 326,470 328,470 329,469 331,469 332,468 333,468 334,467 336,467 337,466 338,466 339,465 341,465 342,464 343,464 344,463 345,463 346,462 347,462 348,461 349,461 350,460 351,460 352,459 353,459 354,458 355,458 356,457 357,457 358,456 359,456 360,455 361,455 362,454 363,454 364,453 365,453 367,451 368,451 369,450 370,450 372,448 373,448 374,447 375,447 377,445 378,445 380,443 381,443 383,441 384,441 387,438 388,438 390,436 391,436 395,432 396,432 401,427 402,427 412,417 413,417 418,412 418,411 427,402 427,401 432,396 432,395 435,392 435,391 438,388 438,387 441,384 441,383 443,381 443,380 445,378 445,377 447,375 447,374 449,372 449,371 450,370 450,369 452,367 452,366 453,365 453,364 454,363 454,362 455,361 455,360 456,359 456,358 458,356 458,355 459,354 459,353 460,352 460,351 461,350 461,348 462,347 462,346 463,345 463,344 464,343 464,342 465,341 465,339 466,338 466,337 467,336 467,334 468,333 468,331 469,330 469,329 470,328 470,326 471,325 471,323 472,322 472,320 473,319 473,316 474,315 474,313 475,312 475,309 476,308 476,305 477,304 477,301 478,300 478,296 479,295 479,291 480,290 480,285 481,284 481,277 482,276 482,267 483,266 483,233 482,232 482,223 481,222 481,215 480,214 480,209 479,208 479,204 478,203 478,199 477,198 477,195 476,194 476,191 475,190 475,187 474,186 474,184 473,183 473,180 472,179 472,177 471,176 471,174 470,173 470,171 469,170 469,168 468,167 468,166 467,165 467,163 466,162 466,161 465,160 465,158 464,157 464,156 463,155 463,154 462,153 462,152 461,151 461,150 460,149 460,148 459,147 459,146 458,145 458,144 457,143 457,142 456,141 456,140 455,139 455,138 454,137 454,136 453,135 453,134 451,132 451,131 450,130 450,129 448,127 448,126 447,125 447,124 445,122 445,121 443,119 443,118 441,116 441,115 439,113 439,112 436,109 436,108 432,104 432,103 427,98 427,97 418,88 418,87 413,82 412,82 402,72 401,72 396,67 395,67 392,64 391,64 388,61 387,61 384,58 383,58 381,56 380,56 378,54 377,54 375,52 374,52 372,50 371,50 370,49 369,49 367,47 366,47 365,46 364,46 363,45 362,45 360,43 359,43 358,42 357,42 356,41 355,41 354,40 353,40 352,39 351,39 350,38 348,38 347,37 346,37 345,36 344,36 343,35 342,35 341,34 339,34 338,33 337,33 336,32 334,32 333,31 332,31 331,30 329,30 328,29 326,29 325,28 323,28 322,27 320,27 319,26 316,26 315,25 313,25 312,24 309,24 308,23 305,23 304,22 301,22 300,21 296,21 295,20 291,20 290,19 286,19 285,18 278,18 277,17 268,17 267,16 Z"/>
</g>
</svg>